<svg width="111" height="31" viewBox="0 0 111 31" fill="none" xmlns="http://www.w3.org/2000/svg">
<path d="M13.3816 12.2175C12.8428 12.2175 12.2427 12.5726 11.5813 13.283C10.9445 13.9933 10.2954 14.973 9.63407 16.2222C8.97274 17.4469 8.34815 18.8308 7.7603 20.3739C7.17245 21.917 6.68257 23.5336 6.29067 25.2237L6.952 21.4027C7.83378 18.8063 8.70331 16.7121 9.56059 15.12C10.4179 13.5279 11.2997 12.3644 12.2059 11.6296C13.1122 10.8948 14.0675 10.5274 15.0717 10.5274C16.4434 10.5274 17.4966 10.9928 18.2314 11.9236C18.9907 12.8543 19.3704 14.226 19.3704 16.0385C19.3704 17.1652 19.2112 18.3777 18.8927 19.6759C18.5743 20.974 18.0967 22.2599 17.4599 23.5336C16.8475 24.8073 16.0882 25.983 15.1819 27.0607C14.2757 28.114 13.2347 28.959 12.059 29.5959C10.9078 30.2082 9.60958 30.5144 8.16444 30.5144C7.45412 30.5144 6.81728 30.3429 6.25393 30C5.69057 29.6571 5.28642 29.1795 5.04148 28.5671L5.33541 27.9425C5.60484 28.5059 5.91101 28.91 6.25393 29.155C6.62133 29.3999 7.03773 29.5224 7.50311 29.5224C8.26242 29.5224 8.99724 29.2162 9.70756 28.6039C10.4179 27.967 11.0792 27.122 11.6916 26.0687C12.3039 25.0155 12.8428 23.852 13.3081 22.5784C13.7735 21.2802 14.1287 19.982 14.3736 18.6839C14.6186 17.3612 14.741 16.1242 14.741 14.973C14.741 13.9933 14.6186 13.2952 14.3736 12.8788C14.1532 12.4379 13.8225 12.2175 13.3816 12.2175ZM5.44563 28.5304C4.71082 28.7018 3.93926 28.9835 3.13096 29.3754C2.34716 29.7428 1.58785 30.147 0.853037 30.5879L0.301926 30.3307C0.473383 29.9878 0.620346 29.6448 0.742815 29.3019C0.84079 28.9345 0.938765 28.5671 1.03674 28.1997L7.57659 5.49392C7.79704 4.66113 7.7603 4.04879 7.46637 3.65689C7.19694 3.26499 6.46212 3.06903 5.26193 3.06903L5.48237 2.29748C7.09896 2.27299 8.51961 2.13827 9.7443 1.89333C10.9935 1.6239 12.1814 1.25649 13.3081 0.79111L5.44563 28.5304ZM23.4937 21.917C24.6449 21.4761 25.6981 21.023 26.6534 20.5576C27.6331 20.0678 28.4537 19.5534 29.115 19.0145C30.0213 18.2062 30.7561 17.2632 31.3194 16.1855C31.8828 15.0833 32.1645 13.8831 32.1645 12.5849C32.1645 12.0215 32.1155 11.6541 32.0175 11.4827C31.9195 11.3112 31.7726 11.2255 31.5766 11.2255C31.0133 11.2255 30.4009 11.4949 29.7396 12.0338C29.0783 12.5726 28.4292 13.3197 27.7923 14.275C27.1555 15.2057 26.5676 16.259 26.0288 17.4347C25.5144 18.6104 25.098 19.8473 24.7796 21.1455C24.4612 22.4437 24.302 23.7296 24.302 25.0033C24.302 26.3014 24.5469 27.22 25.0368 27.7588C25.5511 28.2732 26.2247 28.5304 27.0575 28.5304C27.7678 28.5304 28.6129 28.2977 29.5926 27.8323C30.5724 27.3669 31.5399 26.5219 32.4951 25.2972L33.083 25.5911C32.5931 26.3994 31.944 27.1832 31.1357 27.9425C30.3274 28.7018 29.3967 29.3264 28.3434 29.8163C27.3147 30.2817 26.1757 30.5144 24.9265 30.5144C23.8978 30.5144 22.967 30.3184 22.1343 29.9265C21.3015 29.5346 20.6524 28.959 20.187 28.1997C19.7216 27.4159 19.4889 26.4606 19.4889 25.3339C19.4889 24.1337 19.6971 22.86 20.1135 21.5129C20.5299 20.1412 21.1178 18.8063 21.8771 17.5081C22.6609 16.21 23.5794 15.0343 24.6326 13.981C25.7103 12.9278 26.8983 12.095 28.1965 11.4827C29.4946 10.8458 30.8908 10.5274 32.3849 10.5274C33.3647 10.5274 34.1852 10.7601 34.8465 11.2255C35.5079 11.6664 35.8385 12.3522 35.8385 13.283C35.8385 14.2382 35.5691 15.1322 35.0303 15.965C34.4914 16.7978 33.7566 17.5571 32.8258 18.243C31.9195 18.9288 30.9153 19.5411 29.8131 20.08C28.7353 20.6189 27.6454 21.0842 26.5431 21.4761C25.4409 21.868 24.4122 22.1865 23.4569 22.4314L23.4937 21.917ZM40.6536 28.8243C41.0945 28.8243 41.5966 28.5671 42.16 28.0527C42.7233 27.5139 43.2989 26.7668 43.8868 25.8116C44.4746 24.8563 45.038 23.7173 45.5769 22.3947C46.1157 21.072 46.5811 19.6269 46.973 18.0593L46.2014 22.0273C45.4911 24.1092 44.7318 25.7748 43.9235 27.024C43.1397 28.2732 42.3069 29.1672 41.4252 29.7061C40.5679 30.2449 39.6738 30.5144 38.7431 30.5144C37.4204 30.5144 36.4407 30.1102 35.8038 29.3019C35.167 28.4691 34.8486 27.3669 34.8486 25.9953C34.8486 24.7216 35.0568 23.3867 35.4731 21.9905C35.8895 20.5699 36.4651 19.186 37.2 17.8388C37.9593 16.4672 38.8166 15.2425 39.7718 14.1647C40.7271 13.0625 41.7436 12.1807 42.8213 11.5194C43.899 10.8581 44.9768 10.5274 46.0545 10.5274C46.8873 10.5274 47.5241 10.8826 47.965 11.5929C48.4059 12.2787 48.5161 13.3319 48.2957 14.7526L47.8915 14.973C48.063 13.9443 48.014 13.136 47.7446 12.5481C47.4996 11.9603 47.0832 11.6664 46.4954 11.6664C45.932 11.6664 45.3319 11.9603 44.6951 12.5481C44.0827 13.136 43.4704 13.932 42.858 14.9363C42.2457 15.9405 41.6823 17.0795 41.168 18.3532C40.6781 19.6269 40.2862 20.9495 39.9923 22.3212C39.6983 23.6928 39.5514 25.0278 39.5514 26.3259C39.5514 27.2322 39.6371 27.8813 39.8086 28.2732C40.0045 28.6406 40.2862 28.8243 40.6536 28.8243ZM48.9203 11.0418C49.802 11.0173 50.6226 10.9683 51.3819 10.8948C52.1657 10.8213 52.9128 10.6989 53.6231 10.5274L48.8835 26.8403C48.7855 27.1342 48.7121 27.4404 48.6631 27.7588C48.6386 28.0527 48.6631 28.3099 48.7366 28.5304C48.8345 28.7263 49.0427 28.8243 49.3612 28.8243C49.7531 28.8243 50.1572 28.6161 50.5736 28.1997C50.99 27.7833 51.4186 26.9383 51.8595 25.6646L52.4106 24.0113H53.1087L52.1902 26.6933C51.8473 27.6976 51.4186 28.4814 50.9043 29.0447C50.3899 29.5836 49.8388 29.9633 49.2509 30.1837C48.6876 30.4041 48.1242 30.5144 47.5609 30.5144C46.3852 30.5144 45.5524 30.147 45.0625 29.4121C44.7441 28.8733 44.6216 28.212 44.6951 27.4281C44.7686 26.6443 44.9278 25.7993 45.1727 24.893L48.9203 11.0418ZM68.0576 17.1775C67.1268 19.7983 66.2573 21.966 65.449 23.6806C64.6407 25.3952 63.8324 26.7546 63.0241 27.7588C62.2403 28.7631 61.432 29.4734 60.5992 29.8898C59.7664 30.3062 58.8847 30.5144 57.9539 30.5144C56.9252 30.5144 56.1413 30.2817 55.6025 29.8163C55.0881 29.3509 54.8064 28.7141 54.7574 27.9058C54.7085 27.073 54.8677 26.0932 55.2351 24.9665L58.7989 14.1647C59.0439 13.4299 59.1051 12.9156 58.9826 12.6216C58.8602 12.3277 58.6152 12.1807 58.2478 12.1807C57.8804 12.1807 57.4885 12.3889 57.0721 12.8053C56.6802 13.2217 56.2516 14.0668 55.7862 15.3404L55.1983 16.9938H54.5003L55.4188 14.3117C55.7862 13.283 56.2271 12.4992 56.7414 11.9603C57.2803 11.4214 57.8437 11.054 58.4315 10.8581C59.0439 10.6376 59.6317 10.5274 60.1951 10.5274C61.2728 10.5274 62.0444 10.7723 62.5097 11.2622C62.9996 11.7276 63.2446 12.3889 63.2446 13.2462C63.2691 14.079 63.0853 15.0465 62.6934 16.1487L59.35 26.2524C58.7622 28.016 58.9336 28.8978 59.8644 28.8978C60.3788 28.8978 60.9421 28.6161 61.5545 28.0527C62.1668 27.4649 62.7914 26.6443 63.4283 25.5911C64.0896 24.5134 64.7387 23.2642 65.3755 21.8436C66.0369 20.4229 66.6614 18.8798 67.2493 17.2142C67.8616 15.5486 68.4128 13.7973 68.9026 11.9603L68.0576 17.1775ZM69.1966 26.877C69.0251 27.4894 68.9516 27.9793 68.9761 28.3467C69.0006 28.6896 69.2211 28.861 69.6374 28.861C70.1028 28.861 70.5315 28.6283 70.9234 28.163C71.3398 27.6731 71.7562 26.8525 72.1726 25.7013L72.7972 23.9745H73.4952L72.54 26.7301C72.1971 27.7098 71.7562 28.4814 71.2173 29.0447C70.7029 29.5836 70.1396 29.9633 69.5272 30.1837C68.9394 30.4041 68.3515 30.5144 67.7637 30.5144C67.1758 30.5144 66.6737 30.4041 66.2573 30.1837C65.8409 29.9878 65.5347 29.7061 65.3388 29.3387C65.0938 28.8978 64.9836 28.3589 65.0081 27.7221C65.0571 27.0852 65.2041 26.3014 65.449 25.3707L69.1231 11.0418C70.0049 11.0173 70.8376 10.9683 71.6214 10.8948C72.4053 10.8213 73.1278 10.6989 73.7892 10.5274L69.1966 26.877ZM88.2618 11.0418L88.1516 11.7766H75.8435L76.0272 11.0418H88.2618ZM79.3338 26.877C79.1379 27.5629 79.1624 28.065 79.4073 28.3834C79.6768 28.7018 80.0319 28.861 80.4728 28.861C80.9872 28.861 81.5015 28.6161 82.0159 28.1262C82.5548 27.6363 83.0447 26.7791 83.4855 25.5544L84.0367 24.048H84.7347L83.9999 26.2524C83.4855 27.7711 82.7752 28.861 81.869 29.5224C80.9627 30.1837 79.885 30.5144 78.6358 30.5144C77.5335 30.5144 76.6885 30.2694 76.1007 29.7796C75.5373 29.2897 75.1944 28.6283 75.0719 27.7956C74.9739 26.9383 75.0842 25.9708 75.4026 24.893L80.9504 5.53067C81.8322 5.50617 82.6528 5.45718 83.4121 5.3837C84.1959 5.31022 84.9307 5.18775 85.6165 5.0163L79.3338 26.877ZM90.0495 26.877C89.8536 27.5384 89.8046 28.0405 89.9025 28.3834C90.025 28.7018 90.27 28.861 90.6374 28.861C90.9803 28.861 91.3477 28.6528 91.7396 28.2364C92.156 27.7956 92.5969 26.9505 93.0622 25.7013L93.6501 24.048H94.3482L93.4297 26.7301C93.0867 27.7098 92.6581 28.4814 92.1437 29.0447C91.6294 29.5836 91.0782 29.9633 90.4904 30.1837C89.9025 30.4041 89.3024 30.5144 88.6901 30.5144C87.9063 30.5144 87.2817 30.3674 86.8163 30.0735C86.3509 29.7796 86.0325 29.3754 85.8611 28.861C85.6896 28.3467 85.6284 27.7588 85.6774 27.0975C85.7263 26.4117 85.8733 25.6768 86.1182 24.893L91.96 5.49392C92.205 4.66113 92.1805 4.04879 91.8865 3.65689C91.5926 3.26499 90.8456 3.06903 89.6454 3.06903L89.9025 2.29748C91.4946 2.27299 92.9153 2.13827 94.1645 1.89333C95.4137 1.6239 96.6139 1.25649 97.7651 0.79111L90.0495 26.877ZM101.438 4.72237C101.511 3.8161 101.879 3.09353 102.54 2.55466C103.202 2.0158 103.973 1.74637 104.855 1.74637C105.663 1.74637 106.276 1.97906 106.692 2.44444C107.133 2.88533 107.317 3.46094 107.243 4.17126C107.17 5.00405 106.802 5.70212 106.141 6.26548C105.479 6.82884 104.708 7.11052 103.826 7.11052C103.018 7.11052 102.393 6.89007 101.952 6.44918C101.536 5.9838 101.365 5.4082 101.438 4.72237ZM100.152 14.1647C100.593 12.8421 100.446 12.1807 99.7112 12.1807C99.2213 12.1807 98.7804 12.4379 98.3885 12.9523C97.9966 13.4422 97.5802 14.2382 97.1393 15.3404L96.5147 17.0673H95.8167L96.7719 14.3117C97.1393 13.3319 97.5802 12.5726 98.0946 12.0338C98.609 11.4704 99.1846 11.0785 99.8214 10.8581C100.458 10.6376 101.083 10.5274 101.695 10.5274C102.552 10.5274 103.202 10.6866 103.642 11.005C104.083 11.3235 104.377 11.7399 104.524 12.2542C104.671 12.7686 104.708 13.3319 104.634 13.9443C104.561 14.5321 104.426 15.1078 104.23 15.6711L100.336 26.877C100.115 27.5384 100.054 28.0405 100.152 28.3834C100.25 28.7018 100.483 28.861 100.85 28.861C101.242 28.861 101.634 28.6528 102.026 28.2364C102.442 27.7956 102.883 26.9505 103.349 25.7013L103.973 24.048H104.671L103.753 26.7301C103.385 27.7098 102.944 28.4814 102.43 29.0447C101.916 29.5836 101.352 29.9633 100.74 30.1837C100.128 30.4041 99.5275 30.5144 98.9396 30.5144C97.8619 30.5144 97.0781 30.2817 96.5882 29.8163C96.0983 29.3264 95.8534 28.6651 95.8534 27.8323C95.8534 26.975 96.0494 25.9953 96.4413 24.893L100.152 14.1647Z" fill="black"/>
<path d="M105.09 28.4201C105.09 27.5139 105.409 26.7423 106.046 26.1055C106.707 25.4686 107.478 25.1502 108.36 25.1502C109.07 25.1502 109.622 25.3462 110.014 25.7381C110.43 26.13 110.638 26.6566 110.638 27.3179C110.638 27.8813 110.491 28.4079 110.197 28.8978C109.903 29.3632 109.499 29.7428 108.985 30.0367C108.495 30.3552 107.944 30.5144 107.331 30.5144C106.646 30.5144 106.094 30.3307 105.678 29.9633C105.286 29.5714 105.09 29.057 105.09 28.4201Z" fill="#CC0087"/>
</svg>
